<svg xmlns="http://www.w3.org/2000/svg" width="800" height="600" viewBox="0 0 400 300" role="img" aria-label="Abstract cosmic silhouette for Kellan Bramble">
<defs><linearGradient id="g" x2="1" y2="1"><stop stop-color="hsl(187 70% 13%)"/><stop offset=".52" stop-color="hsl(278 75% 28%)"/><stop offset="1" stop-color="#080718"/></linearGradient><radialGradient id="n"><stop stop-color="hsl(278 95% 72%)" stop-opacity=".6"/><stop offset="1" stop-color="hsl(187 80% 45%)" stop-opacity="0"/></radialGradient><filter id="b"><feGaussianBlur stdDeviation="8"/></filter></defs>
<rect width="400" height="300" fill="url(#g)"/><circle cx="165" cy="200" r="110" fill="url(#n)" filter="url(#b)"/><g fill="#fff"><circle cx="143" cy="231" r="1" opacity=".5"/><circle cx="180" cy="109" r="2" opacity=".3"/><circle cx="87" cy="250" r="1" opacity=".5"/><circle cx="127" cy="168" r="2" opacity=".8"/><circle cx="212" cy="223" r="2" opacity=".6"/><circle cx="149" cy="110" r="2" opacity=".3"/></g>
<g fill="none" stroke="hsl(278 90% 78%)" opacity=".45"><ellipse cx="200" cy="158" rx="110" ry="43" transform="rotate(7 200 158)"/><path d="M25 215 Q200 85 375 210"/></g>
<g fill="#090817" stroke="hsl(187 75% 78%)" stroke-width="2"><circle cx="200" cy="105" r="31"/><path d="M169 104 Q200 53 231 104 Q222 72 200 65 Q178 72 169 104Z"/><path d="M155 270 Q158 147 200 135 Q242 147 252 270Z"/><path d="M160 168 Q110 191 77 245 Q145 228 177 201Z"/><path d="M240 168 Q290 189 327 231 Q265 224 224 201Z"/></g>
<circle cx="200" cy="105" r="45" fill="none" stroke="white" stroke-opacity=".25" stroke-width="3" stroke-dasharray="4 9"/><text x="20" y="278" fill="white" fill-opacity=".62" font-family="sans-serif" font-size="11" letter-spacing="3">KELLAN BRAMBLE</text></svg>