<svg xmlns="http://www.w3.org/2000/svg" width="800" height="600" viewBox="0 0 400 300" role="img" aria-label="Abstract cosmic silhouette for Nim Cloudstep">
<defs><linearGradient id="g" x2="1" y2="1"><stop stop-color="hsl(289 70% 13%)"/><stop offset=".52" stop-color="hsl(10 75% 28%)"/><stop offset="1" stop-color="#080718"/></linearGradient><radialGradient id="n"><stop stop-color="hsl(10 95% 72%)" stop-opacity=".6"/><stop offset="1" stop-color="hsl(289 80% 45%)" stop-opacity="0"/></radialGradient><filter id="b"><feGaussianBlur stdDeviation="8"/></filter></defs>
<rect width="400" height="300" fill="url(#g)"/><circle cx="131" cy="142" r="110" fill="url(#n)" filter="url(#b)"/><g fill="#fff"><circle cx="216" cy="221" r="1" opacity=".3"/><circle cx="228" cy="166" r="2" opacity=".4"/><circle cx="131" cy="124" r="1" opacity=".9"/><circle cx="154" cy="179" r="2" opacity=".5"/><circle cx="132" cy="94" r="3" opacity=".5"/><circle cx="212" cy="236" r="1" opacity=".7"/></g>
<g fill="none" stroke="hsl(10 90% 78%)" opacity=".45"><ellipse cx="200" cy="158" rx="108" ry="41" transform="rotate(-7 200 158)"/><path d="M25 217 Q200 83 375 208"/></g>
<g fill="#090817" stroke="hsl(289 75% 78%)" stroke-width="2"><circle cx="200" cy="105" r="31"/><path d="M169 104 Q200 51 231 104 Q222 72 200 65 Q178 72 169 104Z"/><path d="M155 270 Q158 147 200 135 Q242 147 252 270Z"/><path d="M160 168 Q108 193 75 245 Q145 228 177 201Z"/><path d="M240 168 Q292 187 329 231 Q265 224 224 201Z"/></g>
<circle cx="200" cy="105" r="45" fill="none" stroke="white" stroke-opacity=".25" stroke-width="3" stroke-dasharray="4 9"/><text x="20" y="278" fill="white" fill-opacity=".62" font-family="sans-serif" font-size="11" letter-spacing="3">NIM CLOUDSTEP</text></svg>